<?xml version="1.0" encoding="UTF-8"?>
<svg id="Layer_1" data-name="Layer 1" xmlns="http://www.w3.org/2000/svg" viewBox="0 0 4000 2056.17">
  <defs>
    <style>
      .cls-1 {
        fill: #fff;
        stroke-width: 0px;
      }
    </style>
  </defs>
  <path class="cls-1" d="m79.88,70.85c-3.25-.27-7.39-.41-8.9,2.11-1.38,2.29.34,5.85,1.39,9.42,1.05,3.57,4.8,5.02,6.86,3.65,2.06-1.38,4.36-3.9,6.53-8.37,2.18-4.47-2.64-6.53-5.89-6.81Z"/>
  <path class="cls-1" d="m0,0v2056h4000V0H0Zm3996,2052H4V4h3992v2048Z"/>
  <path class="cls-1" d="m24,2044h3952c6.62,0,12-5.38,12-12V24c0-6.62-5.38-12-12-12H24c-6.62,0-12,5.38-12,12v2008c0,6.62,5.38,12,12,12ZM3984,170.51c-2.96-5.44-7.23-9.74-11.64-12.77,4.81-2.64,8.78-6.74,11.64-11.94v24.71Zm0-36.23c-2.27,10.48-8.31,18.26-16.58,21.33-.74.27-1.24.95-1.3,1.74-.05.78.36,1.53,1.04,1.9,8.14,4.39,16.83,13.79,16.83,26.99v124.45c-4.57-30.04-12.99-58.83-24.7-85.88-8.99-23.18-16.56-50.34,2.29-64.83.76-.58,1-1.62.57-2.48-.43-.86-1.4-1.29-2.33-1.03-15.09,4.22-32.06-1.17-51.89-16.5-.33-.25-.71-.35-1.1-.38-4-4.8-8.12-9.48-12.37-14.06.02.01.04.02.06.03,9.35,5.77,20.35,9.11,32.12,9.11s22.54-3.26,31.82-8.92c6.73-3.53,16.38-1.3,23.08,5.4.39.39.9.59,1.41.59.36,0,.7-.13,1.02-.33v2.86Zm-36.57,65.81c-9.35-17.66-20.17-34.42-32.28-50.14,14.13,9.05,26.97,12.91,38.87,11.67-8.93,10.34-9.49,24.17-6.59,38.46Zm18.88-80c2.52-2.14,4.87-4.48,7.02-7,.09,3.01.77,6.09,2.06,9.06-2.97-1.29-6.06-1.97-9.07-2.06Zm17.69,7.82c-6.32-6.61-8.42-15.87-5.11-22.45,2.02-3.27,3.73-6.73,5.11-10.37v32.81Zm0-103.9v27.58c-1.34-3.52-2.98-6.89-4.92-10.07-3.24-6.18-1.61-14.83,3.87-21.39.65,1.15,1.04,2.46,1.04,3.87Zm-8-8c1.46,0,2.82.42,4,1.11-6.49,5.45-15.04,7.11-21.21,4-3.26-2.01-6.73-3.73-10.36-5.11h27.58Zm-.53,8.62c-1.29,2.97-1.97,6.06-2.06,9.08-2.14-2.52-4.48-4.87-7-7.02,3.01-.09,6.09-.77,9.06-2.06Zm-20.04-.85c.07.05.11.13.18.17.24.15.48.29.73.42h0s.02.01.03.02c0,0,0,0,0,0h0s0,0,.01,0c.12.07.25.11.36.17,7.67,4.75,14.15,11.26,18.86,18.96.03.06.05.12.08.18,0,0,0,0,0,0,.14.26.29.51.44.76.03.04.07.08.1.12,4.92,8.46,7.76,18.27,7.76,28.74s-2.84,20.31-7.77,28.77c-.05.07-.13.11-.17.18-.15.25-.3.51-.44.76,0,0,0,0,0,.01-.07.12-.11.25-.17.37-4.75,7.67-11.25,14.15-18.95,18.86-.06.03-.13.06-.2.09-.01,0-.02.02-.03.03-.01,0-.03,0-.04.01-.23.13-.46.26-.68.39-.03.02-.05.06-.08.08-8.47,4.94-18.29,7.78-28.78,7.78s-20.3-2.84-28.76-7.77c-.07-.05-.11-.13-.19-.17-.25-.16-.51-.3-.77-.44,0,0,0,0,0,0-.12-.07-.26-.11-.38-.18-7.67-4.75-14.14-11.25-18.85-18.95-.03-.06-.05-.12-.08-.18,0,0,0,0,0-.01-.14-.26-.28-.51-.44-.76-.02-.03-.05-.05-.08-.08-4.94-8.47-7.78-18.3-7.78-28.79s2.82-20.23,7.72-28.67c.08-.09.16-.17.23-.28.15-.25.3-.51.44-.76,0,0,0,0,0,0,.07-.12.11-.25.17-.37,4.75-7.67,11.25-14.14,18.95-18.85.07-.04.14-.06.2-.09,0,0,.01-.01.02-.02.02,0,.03-.01.05-.02.23-.13.47-.26.69-.4.03-.02.05-.05.08-.07,8.47-4.94,18.29-7.78,28.78-7.78s20.31,2.84,28.77,7.77Zm-71.5,96.51c-.34.06-.68.13-1.02.2l.61-.61c.14.14.28.27.42.41Zm-5.99-95.75c2.97,1.29,6.06,1.97,9.07,2.06-2.52,2.14-4.87,4.48-7.02,7-.09-3.01-.77-6.09-2.06-9.06Zm26.96-8.53c-3.52,1.34-6.89,2.98-10.06,4.92-6.56,3.44-15.89,1.39-22.56-4.92h32.62Zm-51.69,0c-5.2,2.86-9.3,6.83-11.95,11.64-3.03-4.41-7.33-8.68-12.77-11.64h24.71Zm-40.44,0c13.2,0,22.59,8.7,26.99,16.83.35.65,1.03,1.05,1.76,1.05.04,0,.09,0,.14,0,.78-.05,1.46-.56,1.74-1.3,3.08-8.27,10.85-14.3,21.33-16.58h3.88c-.16.29-.26.61-.26.93,0,.51.2,1.02.59,1.41,6.63,6.63,8.88,16.15,5.51,22.87-5.77,9.35-9.11,20.35-9.11,32.12s3.26,22.54,8.92,31.82c.07.14.13.28.2.41-4.96-4.56-10.06-8.99-15.28-13.27-.05-.08-.06-.17-.12-.24-15.32-19.83-20.72-36.81-16.5-51.89.26-.92-.17-1.9-1.03-2.33-.86-.43-1.9-.19-2.48.57-16.91,22.01-51.1,8.01-76.05-2.21-.19-.08-.38-.09-.57-.11-25.16-9.64-51.69-16.47-79.23-20.08h129.58Zm35.65,67.85c-15.5-11.72-32-22.18-49.35-31.24,14.24,2.87,28.01,2.28,38.3-6.62-1.21,11.62,2.45,24.13,11.04,37.87ZM171.49,16c-5.44,2.96-9.74,7.23-12.77,11.64-2.64-4.81-6.74-8.78-11.95-11.64h24.71Zm-40.11,0h3.88c10.48,2.28,18.25,8.31,21.33,16.58.27.74.95,1.24,1.74,1.3.05,0,.09,0,.14,0,.73,0,1.41-.4,1.76-1.05,4.39-8.14,13.79-16.83,26.99-16.83h129.58c-27.54,3.61-54.07,10.44-79.23,20.08-.19.02-.38.03-.57.11-24.96,10.22-59.14,24.22-76.05,2.21-.58-.76-1.62-1-2.48-.57-.86.43-1.29,1.4-1.03,2.33,4.22,15.09-1.18,32.06-16.5,51.89-.06.07-.07.16-.12.24-5.22,4.28-10.31,8.7-15.28,13.27.07-.14.13-.28.2-.41,5.66-9.28,8.92-20.18,8.92-31.82s-3.34-22.77-9.11-32.12c-3.38-6.72-1.12-16.24,5.51-22.87.39-.39.59-.9.59-1.41,0-.32-.11-.64-.26-.93Zm31.23,29.99c10.3,8.9,24.07,9.49,38.31,6.62-17.35,9.06-33.85,19.52-49.35,31.25,8.6-13.74,12.25-26.25,11.05-37.87Zm-34.9-29.99c-6.67,6.31-16,8.36-22.56,4.92-3.18-1.94-6.55-3.58-10.07-4.92h32.62Zm-5.66,8.53c-1.29,2.97-1.97,6.05-2.06,9.06-2.15-2.52-4.49-4.86-7.02-7,3.01-.09,6.1-.77,9.07-2.06ZM24,16h27.58c-3.63,1.38-7.1,3.1-10.37,5.11-6.18,3.11-14.72,1.44-21.21-4,1.18-.69,2.53-1.11,4-1.11Zm9.59,10.68c-2.52,2.15-4.86,4.49-7,7.01-.09-3.01-.77-6.1-2.06-9.07,2.97,1.29,6.05,1.97,9.06,2.06Zm-17.59-2.68c0-1.41.4-2.72,1.04-3.87,5.48,6.56,7.12,15.2,3.87,21.39-1.94,3.18-3.58,6.55-4.92,10.07v-27.58Zm7.76,20.59s.07-.07.1-.12c.15-.25.3-.51.44-.76,0,0,0,0,0,0,.03-.06.05-.12.08-.18,4.71-7.7,11.18-14.2,18.85-18.96.13-.07.26-.11.39-.18,0,0,.02-.01.02-.02.02,0,.04-.01.06-.02.23-.13.46-.25.68-.39.08-.05.12-.12.19-.18,8.46-4.93,18.29-7.77,28.76-7.77s20.31,2.84,28.78,7.78c.03.02.05.05.08.07.22.14.46.27.76.44,0,0,0,0,.01,0,.06.04.13.06.19.09,7.7,4.71,14.2,11.18,18.95,18.85.06.12.11.25.18.37,0,0,0,0,0,0,.14.26.29.51.44.76.06.1.15.19.23.28,4.9,8.44,7.72,18.23,7.72,28.67s-2.84,20.32-7.78,28.78c-.02.03-.06.05-.08.08-.15.25-.3.5-.44.76,0,0,0,0,0,.01-.03.06-.05.12-.09.18-4.71,7.7-11.18,14.2-18.85,18.95-.12.07-.26.11-.38.18,0,0,0,0,0,0-.26.14-.52.29-.77.44-.08.05-.12.12-.19.17-8.46,4.93-18.28,7.77-28.76,7.77s-20.31-2.84-28.78-7.78c-.03-.02-.05-.06-.08-.08-.22-.14-.45-.27-.76-.43,0,0,0,0,0,0-.06-.04-.13-.06-.19-.09-7.7-4.71-14.2-11.18-18.95-18.86-.06-.12-.11-.25-.17-.37,0,0,0,0,0-.01-.14-.26-.29-.51-.44-.76-.05-.07-.12-.12-.17-.18-4.93-8.46-7.77-18.29-7.77-28.77s2.84-20.29,7.76-28.74Zm93.33,75.89c-.34-.07-.68-.14-1.03-.2.14-.14.28-.27.42-.41l.61.61Zm-83.39-.4c-3.01.09-6.1.77-9.07,2.06,1.29-2.97,1.97-6.05,2.06-9.06,2.15,2.52,4.49,4.86,7.02,7Zm-17.69-24.99c1.38,3.63,3.1,7.1,5.11,10.37,3.31,6.58,1.21,15.84-5.11,22.45v-32.81Zm0,50.7c2.86,5.2,6.83,9.3,11.64,11.94-4.41,3.03-8.68,7.33-11.64,12.77v-24.71Zm0,40.44c0-13.2,8.7-22.59,16.83-26.99.69-.37,1.1-1.12,1.04-1.9-.05-.78-.56-1.46-1.3-1.74-8.27-3.08-14.31-10.85-16.58-21.33v-2.86c.32.19.66.33,1.02.33.51,0,1.02-.2,1.41-.59,6.7-6.7,16.35-8.94,23.08-5.4,9.28,5.66,20.18,8.92,31.82,8.92s22.77-3.34,32.12-9.11c.02-.01.04-.02.06-.03-4.24,4.58-8.37,9.26-12.37,14.06-.38.02-.77.12-1.1.38-19.83,15.32-36.81,20.72-51.89,16.5-.93-.26-1.9.18-2.33,1.03-.43.86-.19,1.9.57,2.48,18.85,14.49,11.28,41.65,2.29,64.83-11.71,27.05-20.12,55.84-24.7,85.88v-124.45Zm29.98-24.61c11.9,1.24,24.74-2.62,38.87-11.67-12.12,15.71-22.93,32.48-32.28,50.13,2.9-14.29,2.34-28.12-6.59-38.46Zm-29.98,202.05c0-6.07.17-12.1.48-18.1.02,0,.04,0,.06,0h10.54v7.47c0,.83.34,1.58.88,2.12s1.29.88,2.12.88c1.66,0,3-1.34,3-3v-7.47h6.27c.83,0,1.58-.33,2.12-.88s.88-1.29.88-2.12c0-1.66-1.34-3-3-3h-6.27v-7.47c0-1.66-1.34-3-3-3-.83,0-1.58.34-2.12.88s-.88,1.29-.88,2.12v7.47h-10.24c1.13-16.4,3.41-32.49,6.76-48.19.47.34,1.09.68,1.53.68l7.32,1.42,1.65.32-.84,4.69c-.16.16-.23,2.4-.22,2.61,0,.8.33,1.54.88,2.08.52.52,1.23.84,1.99.88.06,0,.12,0,.18,0,.7-.01,1.36-.26,1.88-.7.52-.41,1.38-1.57,1.38-2.29l1.22-6.01,3.68.72c.15.15,2.05.22,2.24.22.81,0,1.57-.33,2.12-.88.58-.58.9-1.38.87-2.22-.02-.59-.21-1.14-.54-1.6-.4-.65-1.75-1.72-2.56-1.72l-4.49-.98.64-3.13c.29-.29.29-4.04,0-4.33-.27-1.51-1.71-2.54-3.25-2.31-.11.02-.22.04-.33.07-.51.06-1.31.63-1.65.97-.41.41-1.04,1.35-1.04,1.97l-.95,5.32-7-1.53c-.22-.22-2.27-.28-3.37-.16,3.77-16.26,8.66-32.09,14.63-47.39.14-.16.26-.34.34-.55,1.32-3.22,2.69-6.59,4.05-10.05,0,0,0,.02,0,.02,0,.41,1.04,1.66,1.31,1.93.27.27,1.49,1.28,1.9,1.28l6.78,2.85.89.38-1.94,4.9c-.31.31-.46,2.09-.44,2.5.02.77.33,1.5.88,2.04.54.54,1.27.85,2.03.88.06,0,.12,0,.18,0,.7-.02,1.37-.29,1.9-.76.35-.27,1.61-1.74,1.61-2.22l2.04-4.7,3.77,1.59c.29.29,1.82.44,2.2.44.8,0,1.56-.31,2.12-.88.62-.62.93-1.46.86-2.33-.04-.6-.26-1.17-.65-1.64-.26-.43-2.03-2.01-2.57-2.01l-3.05-1.39,1.62-3.73c.59-.59.59-3.72,0-4.3-.54-1.37-2.08-2.09-3.49-1.62-.11.04-.21.08-.31.13-.34.04-1.31.86-1.54,1.09-.27.27-1.2,1.41-1.2,1.82l-1.47,3.7-1.05-.48-6.83-3.12c-.56-.56-3.25-.58-3.99-.07,8.67-19.58,19.1-38.22,31.09-55.71.41.49.96,1.07,1.04,1.16.14.14,1.59,1.48,1.79,1.48l6.24,4.27.52.36-3.43,5.17c-.47.47-.69,1.78-.66,2.39.03.74.33,1.45.88,2,.56.57,1.31.87,2.08.88.06,0,.12,0,.19,0,.7-.03,1.38-.31,1.92-.82.17-.14,1.85-1.91,1.85-2.15l2.62-3.75,4.11,2.82c.44.44,1.59.66,2.16.66.78,0,1.55-.3,2.12-.88.65-.65.95-1.55.86-2.43-.06-.61-.32-1.2-.75-1.68-.13-.21-2.3-2.29-2.57-2.29l-2.19-1.56,3.18-4.57c.88-.88.88-3.39,0-4.27-.82-1.23-2.44-1.63-3.74-.92-.1.05-.19.11-.28.18-.17.02-1.32,1.09-1.44,1.21-.14.14-1.36,1.46-1.36,1.67l-1.85,2.79-2.36-1.69-6.53-4.67c-.2-.2-.49-.35-.81-.46,9.8-13.76,20.57-26.79,32.23-38.96,4.04.02,8.34,1.4,12.15,3.97l-5.28,5.28c-1.17,1.17-1.17,3.07,0,4.24.59.59,1.35.88,2.12.88s1.54-.29,2.12-.88l5.28-5.28,4.44,4.44c.59.59,1.35.88,2.12.88s1.54-.29,2.12-.88c1.17-1.17,1.17-3.07,0-4.24l-4.44-4.44,5.28-5.28c1.17-1.17,1.17-3.07,0-4.24-1.17-1.17-3.07-1.17-4.24,0l-5.28,5.28-.51-.51-2.2-2.2c-1.31-2.83-2-5.8-2.02-8.64,12.45-11.83,25.79-22.73,39.89-32.62.1.22.21.42.36.57l4.14,5.92,2.13,3.04-3.27,2.28c-.24,0-2.01,1.67-2.14,1.84-.5.53-.78,1.21-.82,1.91-.04.83.26,1.65.87,2.27.55.55,1.27.85,2.02.88.03,0,.1,0,.14,0,.58,0,1.79-.22,2.23-.66l4.73-3.14.76,1.09c0,.41,3.09,3.51,3.51,3.51.04,0,.3.23.34.22.62.41,1.36.54,2.05.41.69-.13,1.34-.52,1.78-1.15.88-.88.88-3.38,0-4.25l-2.58-3.7,2.96-1.96c.21,0,1.55-1.24,1.69-1.38.11-.11,1.16-1.23,1.18-1.4.07-.1.13-.2.18-.3.69-1.3.3-2.92-.93-3.73-.88-.88-3.39-.88-4.27,0l-4.67,3.26-.45-.64-3.9-5.57c0-.3-1.67-2.06-2.72-2.96,17.37-11.72,35.84-21.92,55.23-30.38-.17,1.15-.05,2.81.36,3.23l2.76,6.32.68,1.55-3.93,1.7c-.48,0-1.94,1.26-2.21,1.61-.47.52-.74,1.19-.76,1.89-.03.83.29,1.63.88,2.22.55.55,1.28.86,2.05.88.02,0,.12,0,.14,0,.38,0,2.05-.15,2.34-.44l4.2-1.67,1.05,2.39c0,.83,2.51,3.34,3.34,3.34.07,0,.3.15.37.14.66.24,1.36.2,1.98-.06s1.14-.75,1.43-1.42c.59-.59.59-3.68,0-4.27l-1.25-2.85,3.98-1.58c.41,0,1.56-.94,1.83-1.21.23-.23,1.03-1.17,1.07-1.51.05-.11.09-.22.13-.33.46-1.42-.25-2.95-1.62-3.49-.59-.59-3.71-.59-4.3,0l-3.91,1.7-.54-1.24-2.6-5.94c0-.65-1.53-2.31-2.59-3.01,18.26-7.63,37.31-13.76,56.99-18.2,0,1.05.06,2.15.22,2.3l1.38,6.71.02.1-5.38,1.09c-.72,0-1.87.85-2.29,1.38-.44.52-.69,1.17-.7,1.88-.01.83.31,1.6.88,2.17s1.29.87,2.09.88h.14c.19,0,2.3-.07,2.45-.22l4.13-.74.87,4.24c0,1.24,1.93,3.17,3.17,3.17.11,0,.3.07.4.05.69.07,1.36-.13,1.9-.53.54-.4.94-.99,1.08-1.7.29-.29.29-3.99,0-4.28l-.45-2.21,5.56-1c.62,0,1.57-.64,1.98-1.04.34-.34.9-1.11.96-1.62.03-.12.06-.24.08-.36.23-1.54-.79-2.97-2.31-3.25-.29-.29-4.03-.29-4.33,0l-3.29.67-.49-2.37-1.3-6.31c0-.14-.03-.29-.08-.45,15.44-3.16,31.24-5.28,47.34-6.3v8.5h-7.46c-1.66,0-3,1.34-3,3,0,.83.34,1.58.88,2.12s1.29.88,2.12.88h7.46v6.27c0,1.66,1.34,3,3,3s3-1.34,3-3v-6.27h7.47c.83,0,1.58-.33,2.12-.88s.88-1.29.88-2.12c0-1.66-1.34-3-3-3h-7.47v-8.84c5.38-.25,10.8-.39,16.24-.39h1634.38v29.41h-14.1c-1.63,0-2.95,1.32-2.95,2.96s1.32,2.96,2.95,2.96h14.1v12.19c0,1.63,1.32,2.96,2.95,2.96s2.95-1.32,2.95-2.96v-12.19h14.1c1.63,0,2.95-1.32,2.95-2.96s-1.32-2.96-2.95-2.96h-14.1v-29.41h1634.38c5.44,0,10.86.14,16.24.39v8.84h-7.47c-1.66,0-3,1.34-3,3,0,.83.34,1.58.88,2.12s1.29.88,2.12.88h7.47v6.27c0,.83.34,1.58.88,2.12s1.29.88,2.12.88c1.66,0,3-1.34,3-3v-6.27h7.46c.83,0,1.58-.33,2.12-.88s.88-1.29.88-2.12c0-1.66-1.34-3-3-3h-7.46v-8.5c16.13,1.03,31.96,3.15,47.42,6.32-.01.08-.03.15-.03.22l-1.43,7.35-.29,1.49-3.49-.71c-.29-.29-4.04-.29-4.33,0-1.51.27-2.54,1.7-2.31,3.24.02.12.05.24.08.36.07.5.62,1.28.97,1.63.41.41,1.35,1.04,1.97,1.04l5.83,1.04-.72,3.73c-.14.14-.22,1.99-.22,2.18,0,.82.32,1.58.88,2.14.49.49,1.14.8,1.85.86.12.01.25.01.38,0,.59-.02,1.14-.21,1.6-.54.65-.4,1.72-1.75,1.72-2.57l1.01-4.65,4.46.8c.15.15,2.25.22,2.44.22.81,0,1.57-.33,2.12-.88.56-.57.89-1.34.88-2.17-.01-.7-.26-1.36-.7-1.88-.41-.52-1.57-1.38-2.29-1.38l-5.51-1.12,1.54-7.02c.14-.14.22-1.05.22-1.98,19.64,4.43,38.65,10.54,56.88,18.16-.41.3-.81.64-.95.78-.27.27-1.28,1.49-1.28,1.9l-2.86,6.81-.31.73-4.14-1.8c-.59-.59-3.72-.59-4.3,0-1.37.54-2.09,2.07-1.62,3.48.04.11.08.22.14.33.04.34.85,1.29,1.08,1.52.27.27,1.4,1.19,1.81,1.19l4.33,1.71-1.58,3.77c-.29.29-.43,1.77-.44,2.14,0,.81.31,1.58.88,2.15.52.52,1.21.83,1.94.87.13,0,.26,0,.38,0,.6-.04,1.17-.26,1.64-.65.43-.26,2.01-2.03,2.01-2.57l1.47-3.23,4.56,1.8c.29.29,1.95.44,2.33.44.8,0,1.56-.31,2.12-.88s.9-1.39.88-2.21c-.02-.7-.29-1.37-.76-1.9-.27-.35-1.74-1.61-2.22-1.61l-4.11-1.78.51-1.11,3.12-6.83c.4-.39.52-1.85.38-2.94,19.37,8.45,37.82,18.64,55.16,30.33-.38.34-.74.67-.8.74-.14.14-1.48,1.59-1.48,1.79l-4.28,6.26-.3.44-4.82-3.36c-.88-.88-3.39-.88-4.27,0-1.23.81-1.63,2.43-.93,3.72.06.11.12.21.19.31.02.17,1.07,1.29,1.19,1.41.14.14,1.45,1.35,1.66,1.35l3.19,2.11-2.8,4.08c-.43.43-.65,1.54-.66,2.11,0,.8.29,1.58.88,2.16.55.55,1.28.85,2.03.87.13,0,.26,0,.4-.02.61-.06,1.2-.32,1.68-.75.21-.13,2.29-2.3,2.29-2.57l1.63-2.28,4.95,3.28c.44.44,1.65.66,2.23.66.78,0,1.54-.3,2.12-.88.61-.61.91-1.43.87-2.26-.03-.7-.31-1.38-.82-1.92-.14-.17-1.91-1.85-2.15-1.85l-3.39-2.37,1.72-2.41,4.68-6.53c.12-.12.22-.27.3-.44,14.11,9.9,27.47,20.81,39.94,32.65-.02,2.84-.72,5.81-2.02,8.64l-2.2,2.2-.51.51-5.28-5.28c-1.17-1.17-3.07-1.17-4.24,0-1.17,1.17-1.17,3.07,0,4.24l5.28,5.28-4.44,4.44c-1.17,1.17-1.17,3.07,0,4.24.59.59,1.35.88,2.12.88s1.54-.29,2.12-.88l4.44-4.44,5.28,5.28c.59.59,1.35.88,2.12.88s1.54-.29,2.12-.88c1.17-1.17,1.17-3.07,0-4.24l-5.28-5.28c3.81-2.57,8.11-3.95,12.15-3.97,11.66,12.17,22.43,25.2,32.23,38.96-.33.11-.61.26-.82.46l-6.55,4.69-2.35,1.68-1.86-2.8c0-.21-1.24-1.55-1.38-1.69-.11-.11-1.23-1.16-1.4-1.18-.1-.07-.2-.13-.3-.18-1.3-.69-2.92-.3-3.73.93-.88.88-.88,3.38,0,4.26l3.2,4.57-2.21,1.58c-.27,0-2.43,2.07-2.56,2.28-.43.47-.68,1.05-.75,1.66-.1.88.2,1.78.86,2.44.57.57,1.33.87,2.1.88.03,0,.06,0,.08,0,.55-.01,1.65-.23,2.08-.66l4.14-2.83,2.7,3.86c0,.22,1.57,1.9,1.73,2.04.57.56,1.32.85,2.09.85s1.55-.3,2.12-.88c.54-.54.85-1.26.88-2,.03-.61-.19-1.92-.66-2.38l-3.44-5.18.51-.35,6.31-4.32c.21,0,1.68-1.36,1.81-1.5.08-.08.58-.61.98-1.09,11.99,17.49,22.42,36.12,31.09,55.71-.74-.52-3.44-.5-4,.06l-6.85,3.12-1.04.48-1.47-3.71c0-.41-.94-1.56-1.21-1.83-.23-.23-1.17-1.03-1.51-1.07-.11-.05-.22-.09-.33-.13-1.42-.46-2.95.25-3.49,1.62-.59.59-.59,3.7,0,4.28l1.64,3.75-3.07,1.4c-.54,0-2.3,1.57-2.56,2-.38.47-.6,1.03-.64,1.63-.06.87.25,1.72.86,2.33.55.55,1.3.87,2.08.88.03,0,.06,0,.08,0,.37,0,1.83-.16,2.12-.44l3.83-1.61,2.08,4.78c0,.45,1.18,1.83,1.49,2.11.56.53,1.29.81,2.05.81s1.56-.31,2.12-.88c.54-.54.86-1.27.88-2.04.02-.41-.12-2.18-.44-2.49l-1.95-4.91.86-.36,6.85-2.88c.41,0,1.64-1.02,1.91-1.29.27-.26,1.24-1.44,1.29-1.88,1.35,3.45,2.73,6.82,4.04,10.03.08.21.2.39.34.55,5.97,15.3,10.86,31.13,14.63,47.39-1.1-.12-3.14-.06-3.36.16l-7.01,1.53-.96-5.32c0-.62-.64-1.57-1.05-1.98-.34-.34-1.11-.9-1.62-.96-.12-.03-.24-.06-.36-.08-1.54-.23-2.97.79-3.24,2.31-.29.29-.29,4.01,0,4.3l.65,3.16-4.5.98c-.81,0-2.17,1.07-2.56,1.72-.33.46-.52,1.01-.54,1.6-.03.85.29,1.65.87,2.23.54.54,1.27.86,2.06.88.03,0,.05,0,.08,0,.18,0,2.01-.08,2.15-.22l3.76-.73,1.24,6.05c0,.67.79,1.77,1.26,2.18.54.5,1.25.78,2.02.78.81,0,1.57-.33,2.12-.88.54-.54.87-1.28.88-2.08.01-.21-.06-2.44-.22-2.6l-.85-4.71,1.6-.31,7.4-1.44c.44,0,1.05-.33,1.52-.67,3.35,15.7,5.63,31.8,6.76,48.2h-10.24v-7.47c0-.83-.34-1.58-.88-2.12s-1.29-.88-2.12-.88c-1.66,0-3,1.34-3,3v7.47h-6.27c-1.66,0-3,1.34-3,3,0,.83.34,1.58.88,2.12s1.29.88,2.12.88h6.27v7.47c0,1.66,1.34,3,3,3,.83,0,1.58-.33,2.12-.88s.88-1.29.88-2.12v-7.47h10.54s.04,0,.06,0c.31,6,.48,12.03.48,18.1v1668.33c0,4.41-3.59,8-8,8H24c-4.41,0-8-3.59-8-8V363.67Z"/>
  <path class="cls-1" d="m3876.96,73.33c0,27.41,22.3,49.7,49.7,49.7s49.71-22.3,49.71-49.7-22.3-49.7-49.71-49.7-49.7,22.3-49.7,49.7Zm8,0c0-5.1.97-9.97,2.65-14.5,2.04,4.22,5.89,8.14,11.58,11.72-.63.89-2.21,2.27-4.81,3.02-2.89.82-5.52,1.17-7.64,1.44-.59.08-1.14.15-1.68.23-.03-.64-.1-1.27-.1-1.91Zm41.7,41.7c-.64,0-1.27-.07-1.91-.1.08-.54.16-1.1.23-1.68.27-2.11.62-4.75,1.44-7.63.74-2.61,2.13-4.19,3.02-4.82,3.57,5.69,7.5,9.54,11.72,11.58-4.52,1.69-9.4,2.65-14.5,2.65Zm-34.6-64.96c7.5-11.12,20.21-18.45,34.6-18.45,23,0,41.71,18.71,41.71,41.7,0,14.4-7.33,27.11-18.46,34.61-.89.15-1.82.21-2.79.09-4.49-.55-9.03-4.45-13.12-11.28-.98-1.64-2.76-2.46-4.74-2.2-3.62.48-7.15,4.35-8.6,9.42-.95,3.32-1.32,6.2-1.62,8.51-.08.58-.16,1.21-.25,1.79-3.76-.72-7.32-1.97-10.65-3.62,1.55-5.55,4.9-9.63,10.17-15.65,1.09-1.25.97-3.14-.28-4.23-1.25-1.09-3.14-.97-4.23.28-5.28,6.02-8.99,10.52-10.98,16.46-3.46-2.42-6.52-5.36-9.11-8.7,6.29-2.58,13.49-8.09,16.74-11.51,1.14-1.2,1.09-3.1-.11-4.24-1.2-1.14-3.1-1.09-4.24.11-3.79,3.99-11.14,8.97-15.78,10.55-2.16-3.84-3.73-8.05-4.59-12.51.58-.09,1.21-.17,1.78-.25,2.31-.3,5.19-.67,8.51-1.62,5.07-1.45,8.95-4.98,9.42-8.6.26-1.98-.56-3.76-2.2-4.74-6.82-4.1-10.72-8.63-11.28-13.12-.12-.98-.07-1.91.09-2.8Z"/>
  <path class="cls-1" d="m3928.61,62.63c10.55-.21,18.42-6.78,14.66-15.08-2.92-6.45-11.94-7.26-16.53-7.12-5.91.18-16.42.68-18.46,10.6-1.14,5.57,7.9,11.84,20.32,11.6Z"/>
  <path class="cls-1" d="m71.39,62.63c12.42.25,21.46-6.02,20.32-11.6-2.04-9.92-12.55-10.42-18.46-10.6-4.58-.14-13.61.67-16.53,7.12-3.76,8.3,4.12,14.87,14.66,15.08Z"/>
  <path class="cls-1" d="m3937.95,72.34c-2.35,12.19,2.3,22.17,7.99,21.99,10.12-.33,12.4-10.6,13.58-16.4.92-4.49,1.64-13.52-4.22-17.49-7.54-5.11-15.35,1.54-17.35,11.9Z"/>
  <path class="cls-1" d="m73.33,123.04c27.41,0,49.7-22.3,49.7-49.7s-22.3-49.7-49.7-49.7-49.71,22.3-49.71,49.7,22.3,49.7,49.71,49.7Zm0-8c-5.1,0-9.97-.97-14.5-2.65,4.22-2.04,8.15-5.89,11.72-11.58.89.63,2.27,2.21,3.02,4.82.82,2.89,1.17,5.52,1.44,7.63.08.59.15,1.14.23,1.68-.64.03-1.26.1-1.91.1Zm39.05-56.2c1.69,4.52,2.65,9.39,2.65,14.5,0,.65-.07,1.27-.1,1.91-.54-.08-1.1-.16-1.68-.23-2.12-.27-4.75-.62-7.64-1.44-2.61-.74-4.19-2.13-4.82-3.02,5.69-3.57,9.54-7.5,11.58-11.72Zm-39.05-27.21c14.39,0,27.1,7.33,34.6,18.45.16.89.21,1.82.09,2.8-.55,4.49-4.45,9.03-11.28,13.12-1.64.98-2.46,2.75-2.2,4.74.48,3.62,4.35,7.15,9.42,8.6,3.32.95,6.2,1.32,8.51,1.62.58.08,1.2.16,1.78.25-.86,4.47-2.43,8.68-4.59,12.52-4.67-1.58-11.98-6.56-15.78-10.56-1.14-1.2-3.04-1.25-4.24-.11-1.2,1.14-1.25,3.04-.11,4.24,3.25,3.42,10.45,8.92,16.74,11.51-2.58,3.33-5.65,6.27-9.11,8.7-2-5.94-5.71-10.44-10.98-16.46-1.09-1.25-2.98-1.37-4.23-.28-1.25,1.09-1.37,2.99-.28,4.23,5.27,6.02,8.63,10.1,10.17,15.65-3.33,1.66-6.89,2.9-10.65,3.62-.09-.58-.17-1.21-.25-1.79-.3-2.31-.67-5.19-1.62-8.51-1.45-5.07-4.98-8.95-8.6-9.42-.24-.03-.48-.05-.72-.05-1.69,0-3.16.81-4.02,2.24-4.1,6.83-8.63,10.73-13.12,11.28-.98.12-1.91.07-2.8-.09-11.12-7.5-18.46-20.21-18.46-34.61,0-23,18.71-41.7,41.71-41.7Z"/>
  <path class="cls-1" d="m3920.12,70.85c-3.25.27-8.07,2.33-5.89,6.81s4.47,6.99,6.53,8.37c2.06,1.38,5.81-.08,6.86-3.65,1.05-3.57,2.77-7.13,1.39-9.42-1.51-2.52-5.65-2.38-8.9-2.11Z"/>
  <path class="cls-1" d="m54.06,94.33c5.69.18,10.34-9.8,7.99-21.99-1.99-10.36-9.8-17.01-17.35-11.9-5.86,3.97-5.13,13-4.22,17.49,1.18,5.79,3.45,16.07,13.57,16.4Z"/>
</svg>