<?xml version="1.0" encoding="UTF-8"?>
<svg id="with-decoration" xmlns="http://www.w3.org/2000/svg" viewBox="0 0 2000 2000">
  <defs>
    <style>
      .cls-1 {
        fill: #fff;
        stroke-width: 0px;
      }
    </style>
  </defs>
  <path id="left" class="cls-1" d="M1.7,1990V152H0v1838h1.7ZM6.7,1990V152h-1.7v1838h1.7Z"/>
  <path id="bottom_left" data-name="bottom left" class="cls-1" d="M10,1998.3H1.7v-8.3H0v10h10v-1.7ZM10,1993.35c-1.84,0-3.3-1.51-3.3-3.35h-1.7c0,2.76,2.24,5,5,5v-1.65Z"/>
  <path id="bottom" class="cls-1" d="M10,2000h1980v-1.7H10v1.7ZM10.03,1994.99h1979.97s0-1.69,0-1.69l-1979.97.03v1.65Z"/>
  <path id="bottom_right" data-name="bottom right" class="cls-1" d="M1990,2000h10s0-10,0-10h-1.7s0,8.3,0,8.3h-8.3v1.7ZM1990,1995c2.76,0,5-2.24,5-5h-1.7c0,1.84-1.46,3.3-3.3,3.3v1.7Z"/>
  <path id="right" class="cls-1" d="M2000,1990V152s-1.7,0-1.7,0v1838h1.7ZM1995,1990V152h-1.7v1838h1.7Z"/>
  <path id="top_right" data-name="top right" class="cls-1" d="M1966.63,29.6c-1.36.12-3.37.98-2.46,2.85.91,1.87,1.87,2.92,2.73,3.5.86.57,2.43-.03,2.87-1.53s1.16-2.98.58-3.94c-.63-1.05-2.36-.99-3.72-.88h0ZM1848,1.7l150.33-.03-.03,150.33h1.7V0s-152,0-152,0v1.7ZM1928.35,6.69h10.33c-2.18,1.2-3.89,2.85-4.99,4.86-1.27-1.84-3.06-3.63-5.34-4.86h0ZM1945.1,6.69c-.06.12-.11.25-.11.39,0,.21.08.43.25.59,2.77,2.77,3.71,6.75,2.3,9.56-2.41,3.91-3.81,8.56-3.81,13.42s1.36,9.42,3.73,13.3c.03.05.05.11.08.17-2.08-1.91-4.2-3.76-6.38-5.54-.02-.03-.03-.07-.05-.1-6.4-8.29-8.66-15.38-6.89-21.68.11-.39-.07-.79-.43-.97s-.79-.08-1.04.24c-7.07,9.2-21.35,3.35-31.78-.92-.08-.03-.16-.04-.24-.05-10.51-4.03-21.6-6.88-33.11-8.39h54.15c5.52,0,9.44,3.63,11.28,7.03.15.27.43.44.74.44h.06c.33-.03.61-.23.73-.54,1.29-3.46,4.53-5.98,8.91-6.93h1.62s0,0,0,0ZM1932.05,19.22c-.5,4.86,1.02,10.08,4.62,15.82-6.48-4.9-13.37-9.27-20.62-13.06,5.95,1.2,11.7.95,16.01-2.77h0ZM1946.64,6.69h13.63c-1.47.56-2.88,1.25-4.21,2.06-2.74,1.44-6.64.58-9.43-2.06h0ZM1949.01,10.25c1.24.54,2.53.82,3.79.86-1.06.89-2.03,1.87-2.93,2.92-.04-1.26-.32-2.54-.86-3.79h0ZM1991.64,7.15c-2.71,2.27-6.28,2.97-8.86,1.67-1.37-.84-2.82-1.56-4.33-2.14h11.52c.61,0,1.18.18,1.67.46ZM1989.75,10.29c-.54,1.24-.82,2.53-.86,3.79-.89-1.05-1.87-2.03-2.92-2.93,1.26-.04,2.54-.32,3.79-.86ZM1993.32,10.03v11.52c-.56-1.47-1.25-2.88-2.06-4.21-1.36-2.59-.67-6.2,1.62-8.94.27.48.43,1.03.43,1.62h0ZM1990.06,18.62c2.06,3.53,3.24,7.63,3.24,12.01s-1.19,8.49-3.25,12.02c-.02.03-.05.05-.07.08-.06.1-.13.21-.18.32h0c-.03.05-.05.11-.07.16-1.98,3.21-4.7,5.91-7.92,7.88-.03.01-.05.02-.08.04h0c-.13.07-.23.12-.32.18-.01,0-.02.03-.03.03-3.54,2.06-7.65,3.25-12.03,3.25s-8.48-1.19-12.02-3.25c-.03-.02-.05-.05-.08-.07-.1-.06-.21-.13-.32-.18h0c-.05-.03-.11-.05-.16-.08-3.2-1.98-5.91-4.7-7.88-7.92-.02-.03-.03-.05-.04-.08h0c-.06-.11-.12-.22-.18-.32,0-.01-.03-.02-.03-.03-2.06-3.54-3.25-7.66-3.25-12.03s1.18-8.45,3.23-11.98c.03-.04.07-.08.1-.12.06-.1.13-.21.18-.32h0c.03-.05.05-.1.08-.15,1.98-3.2,4.7-5.91,7.92-7.88.03-.01.05-.02.08-.04h0c.13-.07.23-.13.32-.18.01,0,.02-.02.03-.03,3.54-2.06,7.65-3.25,12.03-3.25s8.48,1.19,12.02,3.25c.03.03.05.05.08.08.09.06.19.11.28.16,0,0,.02,0,.03,0,0,0,0,0,0,0,.05.03.11.05.16.08,3.2,1.99,5.91,4.71,7.88,7.92.01.03.02.05.03.08h0c.06.1.12.21.18.32.01.02.04.05.04.05h0ZM1951.33,50.09c.06.06.12.11.18.17-.15.03-.29.05-.43.08l.25-.25ZM1985.91,50.18c1.06-.89,2.03-1.87,2.93-2.92.04,1.26.32,2.54.86,3.79-1.24-.54-2.53-.82-3.79-.86h0ZM1993.31,39.74v13.71c-2.64-2.76-3.52-6.63-2.14-9.38.84-1.37,1.56-2.82,2.14-4.33h0ZM1993.31,60.92v10.33c-1.24-2.27-3.02-4.07-4.86-5.34,2.01-1.1,3.67-2.82,4.86-4.99h0ZM1993.32,77.82v52c-1.91-12.55-5.43-24.58-10.32-35.89-3.76-9.69-6.92-21.03.96-27.09.32-.24.42-.68.24-1.04-.18-.36-.58-.54-.97-.43-6.3,1.76-13.4-.49-21.68-6.89-.14-.11-.3-.15-.46-.16-1.67-2.01-3.4-3.96-5.17-5.87,0,0,.02,0,.03.01,3.91,2.41,8.56,3.81,13.42,3.81s9.42-1.36,13.3-3.73c2.81-1.48,6.84-.54,9.64,2.26.16.16.38.25.59.25.15,0,.29-.06.43-.14v1.2c-.95,4.38-3.47,7.63-6.93,8.91-.31.12-.52.4-.54.73-.03.33.15.64.43.79,3.4,1.84,7.03,5.76,7.03,11.28h.01ZM1978.03,83.6c-3.91-7.38-8.42-14.38-13.49-20.95,5.9,3.78,11.27,5.39,16.24,4.88-3.73,4.32-3.97,10.1-2.75,16.07ZM1995,152V10.03c-.01-2.77-2.26-5.01-5.03-5.01h-141.97s0,1.99,0,1.99c2.27,0,4.99.17,7.24.28v3.69h-3.12c-.69,0-1.25.56-1.25,1.25,0,.35.14.66.37.89s.54.37.89.37h3.12v2.62c0,.69.56,1.25,1.25,1.25s1.25-.56,1.25-1.25v-2.62h3.12c.35,0,.66-.14.89-.37s.37-.54.37-.89c0-.69-.56-1.25-1.25-1.25h-3.12v-3.55c6.73.43,13.33,1.31,19.78,2.63-.02.07-.03.13-.03.19l-.54,2.64-.2.99-1.37-.28c-.13-.12-1.69-.12-1.81,0-.64.12-1.06.71-.97,1.36,0,.05.02.1.03.15.03.21.26.53.4.68.17.17.57.43.83.43l2.32.42-.19.92c-.12.12-.12,1.67,0,1.79.06.3.23.54.45.71.23.17.51.25.79.22.04,0,.12-.02.17-.02.52,0,1.32-.81,1.32-1.32l.36-1.77,1.73.31c.06.06.94.09,1.02.09h.06c.33,0,.64-.13.87-.37s.37-.56.37-.91c0-.3-.11-.57-.29-.79-.18-.22-.66-.58-.96-.58l-2.25-.46v-.04s.58-2.8.58-2.8c.07-.06.09-.52.09-.96,8.22,1.86,16.18,4.42,23.81,7.6-.44.29-1.08.99-1.08,1.26l-1.09,2.48-.23.52-1.63-.71c-.25-.25-1.55-.25-1.8,0-.57.23-.87.86-.68,1.46.02.05.03.09.05.14.02.14.35.53.45.63.11.11.59.51.76.51l1.66.66-.52,1.19c-.25.25-.25,1.54,0,1.78.12.28.34.48.6.59s.55.13.83.03c.03,0,.13-.06.15-.06.35,0,1.4-1.05,1.4-1.4l.44-1,1.75.7c.12.12.82.18.98.18h.06c.32,0,.63-.14.86-.37.25-.25.38-.58.37-.93,0-.29-.12-.57-.32-.79-.11-.15-.72-.67-.92-.67l-1.64-.71.28-.65,1.15-2.64c.17-.18.22-.87.15-1.35,8.1,3.54,15.82,7.8,23.08,12.69-.44.38-1.14,1.11-1.14,1.24l-1.63,2.33-.19.27-1.95-1.36c-.37-.37-1.42-.37-1.78,0-.51.34-.68,1.02-.39,1.56.02.04.05.08.08.13,0,.07.45.54.49.58.06.06.62.58.71.58l1.24.82-1.08,1.55c-.37.36-.37,1.41,0,1.78.18.26.46.43.74.48s.6,0,.86-.17c.02,0,.13-.09.14-.09.18,0,1.47-1.3,1.47-1.47l.32-.46,1.98,1.31c.18.18.69.28.93.28h.06c.31-.01.61-.14.84-.37.25-.26.38-.6.36-.95-.02-.29-.13-.58-.34-.8-.05-.07-.79-.77-.89-.77l-1.37-.95.89-1.27,1.73-2.47c.06-.06.11-.15.15-.24,5.89,4.13,11.47,8.69,16.67,13.63,0,1.19-.3,2.43-.84,3.61l-.92.92-.21.21-2.21-2.21c-.49-.49-1.28-.49-1.77,0s-.49,1.28,0,1.77l2.21,2.21-1.86,1.86c-.49.49-.49,1.28,0,1.77.24.25.56.37.89.37s.64-.12.89-.37l1.86-1.86,2.21,2.21c.24.25.56.37.89.37s.64-.12.89-.37c.49-.49.49-1.28,0-1.77l-2.21-2.21c1.59-1.07,3.39-1.65,5.08-1.66,4.87,5.09,9.37,10.53,13.47,16.28-.13.05-.25.11-.34.19l-2.73,1.95-.99.71-.77-1.17c0-.09-.51-.64-.57-.7-.05-.05-.53-.5-.6-.51-.04-.03-.08-.05-.12-.08-.54-.3-1.22-.13-1.56.38-.37.37-.37,1.42,0,1.78l1.33,1.91-.92.65c-.11,0-1.02.87-1.07.96-.18.2-.29.45-.31.7-.04.37.09.74.36,1.02.24.24.56.37.89.37.24,0,.72-.09.9-.28l1.72-1.18,1.09,1.57c0,.1.7.84.77.9.23.21.51.33.8.34h.08c.32,0,.64-.13.87-.37.23-.23.36-.53.37-.84.01-.25-.08-.8-.28-1l-1.43-2.16.22-.15,2.61-1.78c.08,0,.69-.56.75-.62.03-.04.26-.28.43-.48,5.01,7.31,9.37,15.1,12.99,23.28-.31-.21-1.43-.2-1.67.03l-2.85,1.3-.44.2-.61-1.55c0-.17-.39-.65-.5-.76-.1-.1-.5-.44-.64-.46-.04-.02-.08-.04-.13-.05-.59-.2-1.23.1-1.46.68-.25.24-.25,1.55,0,1.8l.68,1.56-1.27.58c-.23,0-.97.66-1.07.84-.16.2-.25.43-.27.69-.03.36.1.71.36.97.23.24.55.37.89.37.16,0,.8-.06.92-.18l1.58-.66.85,1.96c0,.2.53.81.67.93.22.2.5.31.79.32h.08c.32-.01.62-.14.85-.37.23-.23.36-.53.37-.85,0-.17-.05-.92-.18-1.04l-.81-2.05.37-.16,2.83-1.19c.17,0,.68-.42.79-.53.11-.11.55-.64.55-.81h0c.57,1.44,1.14,2.85,1.69,4.19.03.09.08.16.14.23,2.49,6.39,4.54,13.01,6.11,19.8-.46-.05-1.32-.03-1.41.07l-2.92.64-.4-2.22c0-.26-.26-.65-.43-.82-.14-.14-.48-.38-.69-.41-.05-.01-.09-.02-.14-.03-.64-.1-1.25.33-1.36.97-.12.12-.12,1.69,0,1.81l.27,1.31-1.88.41c-.34,0-.9.45-1.07.72-.14.19-.22.42-.23.67-.01.35.12.69.36.93.23.23.55.37.89.37.08,0,.87-.03.94-.09l1.54-.3.51,2.51c0,.3.36.79.58.96.22.18.49.29.79.29h.08c.32-.02.61-.15.83-.37.23-.23.37-.53.37-.87,0-.09-.03-1.02-.09-1.09l-.35-1.96.69-.13,3.06-.59c.18,0,.44-.14.64-.28,1.4,6.56,2.35,13.28,2.82,20.14h-4.28v-3.12c0-.35-.14-.66-.37-.89s-.54-.37-.89-.37c-.69,0-1.25.56-1.25,1.25v3.12h-2.62c-.69,0-1.25.56-1.25,1.25,0,.35.14.66.37.89s.54.37.89.37h2.62v3.12c0,.69.56,1.25,1.25,1.25.35,0,.66-.14.89-.37s.37-.54.37-.89v-3.12h4.43c.13,2.51.19,5.07.19,7.6h1.7ZM1970.17,26.17c4.4-.09,7.7-2.83,6.13-6.3-1.22-2.7-4.99-3.03-6.91-2.98-2.47.08-6.86.28-7.71,4.43-.48,2.33,3.3,4.95,8.49,4.85h0ZM1990.13,30.65c0-11.45-9.32-20.77-20.77-20.77s-20.77,9.32-20.77,20.77c0,11.45,9.31,20.77,20.77,20.77,11.45,0,20.77-9.32,20.77-20.77ZM1968.56,48.03c.03-.23.06-.46.1-.7.11-.88.26-1.98.6-3.19.31-1.09.89-1.75,1.26-2.01,1.49,2.38,3.13,3.99,4.9,4.84-1.89.7-3.93,1.11-6.06,1.11-.27,0-.53-.03-.8-.04ZM1953.05,24.59c.85,1.76,2.46,3.41,4.84,4.9-.26.37-.92.95-2.01,1.26-1.21.34-2.31.49-3.19.6-.24.03-.48.06-.7.1-.01-.27-.04-.53-.04-.8,0-2.14.4-4.17,1.11-6.06h0ZM1969.37,13.21c9.61,0,17.43,7.81,17.43,17.42,0,6.02-3.07,11.33-7.71,14.46-.37.07-.76.09-1.17.04-1.88-.23-3.77-1.86-5.48-4.71-.36-.6-.97-.94-1.68-.94-.1,0-.2,0-.3.02-1.51.2-2.99,1.82-3.59,3.94-.4,1.39-.55,2.59-.68,3.56-.03.24-.07.51-.1.75-1.57-.3-3.06-.82-4.45-1.51.64-2.32,2.05-4.02,4.25-6.54.46-.52.41-1.31-.12-1.77-.52-.46-1.31-.41-1.77.12-2.2,2.52-3.75,4.4-4.59,6.88-1.45-1.02-2.73-2.24-3.81-3.64,2.63-1.08,5.64-3.38,6.99-4.81.48-.5.46-1.3-.05-1.77s-1.3-.46-1.77.05c-1.59,1.67-4.64,3.75-6.59,4.41-.9-1.6-1.56-3.36-1.92-5.23.24-.04.5-.07.74-.1.97-.13,2.17-.28,3.56-.68,2.12-.61,3.74-2.08,3.94-3.59.11-.83-.23-1.57-.92-1.98-2.85-1.71-4.48-3.61-4.71-5.48-.05-.41-.03-.8.04-1.17,3.13-4.65,8.44-7.71,14.46-7.71h0ZM1977.42,39.42c4.23-.14,5.18-4.43,5.67-6.85.38-1.88.69-5.65-1.76-7.31-3.15-2.14-6.42.64-7.25,4.97-.98,5.09.96,9.26,3.34,9.19h0Z"/>
  <path id="top" class="cls-1" d="M1848,0H152v1.7h1696V0ZM1848,5H152L0,7l998.82.12v12.29h-5.64c-.65,0-1.18.55-1.18,1.24s.53,1.24,1.18,1.24h5.64v5.09c0,.68.53,1.24,1.18,1.24s1.18-.55,1.18-1.24v-5.09h5.64c.65,0,1.18-.55,1.18-1.24s-.53-1.24-1.18-1.24h-5.64V7.12l846.82-.12v-2Z"/>
  <path id="top_left" data-name="top left" class="cls-1" d="M33.38,29.6c-1.36-.11-3.09-.17-3.72.88-.58.96.14,2.44.58,3.94s2.01,2.1,2.87,1.53c.86-.58,1.82-1.63,2.73-3.5.91-1.87-1.1-2.73-2.46-2.85h0ZM152,0H0v152s1.7,0,1.7,0L1.67,1.67l150.33.03V0ZM71.66,6.69c-2.27,1.24-4.07,3.02-5.34,4.86-1.1-2.01-2.82-3.67-4.99-4.86h10.33ZM54.9,6.69h1.62c4.38.95,7.63,3.47,8.91,6.93.11.31.4.52.73.54h.06c.31,0,.59-.17.74-.44,1.83-3.4,5.76-7.03,11.28-7.03h54.15c-11.51,1.51-22.59,4.36-33.11,8.39-.08,0-.16.01-.24.05-10.43,4.27-24.71,10.12-31.78.92-.24-.32-.68-.42-1.04-.24s-.54.58-.43.97c1.76,6.31-.49,13.4-6.89,21.68-.03.03-.03.07-.05.1-2.18,1.79-4.31,3.64-6.38,5.54.03-.06.05-.12.08-.17,2.37-3.88,3.73-8.43,3.73-13.3s-1.4-9.51-3.81-13.42c-1.41-2.81-.47-6.79,2.3-9.56.16-.16.25-.38.25-.59,0-.13-.05-.27-.11-.39h0ZM67.95,19.22c4.3,3.72,10.06,3.97,16.01,2.77-7.25,3.79-14.14,8.16-20.62,13.06,3.59-5.74,5.12-10.97,4.62-15.82h0ZM53.36,6.69c-2.79,2.64-6.69,3.49-9.43,2.06-1.33-.81-2.74-1.5-4.21-2.06h13.63s0,0,0,0ZM51,10.25c-.54,1.24-.82,2.53-.86,3.79-.9-1.05-1.88-2.03-2.93-2.92,1.26-.04,2.55-.32,3.79-.86h0ZM10.03,6.69h11.52c-1.52.58-2.97,1.3-4.33,2.14-2.58,1.3-6.15.6-8.86-1.67.49-.29,1.06-.46,1.67-.46ZM14.04,11.15c-1.05.9-2.03,1.88-2.92,2.93-.04-1.26-.32-2.55-.86-3.79,1.24.54,2.53.82,3.79.86ZM6.69,10.03c0-.59.17-1.14.43-1.62,2.29,2.74,2.98,6.35,1.62,8.94-.81,1.33-1.5,2.74-2.06,4.21v-11.52h0ZM9.93,18.63s.03-.03.04-.05c.06-.1.13-.21.18-.32h0s.02-.05.03-.08c1.97-3.22,4.67-5.93,7.88-7.92.05-.03.11-.05.16-.08,0,0,0,0,0,0,0,0,.02,0,.03,0,.1-.05.19-.1.28-.16.03-.02.05-.05.08-.08,3.54-2.06,7.64-3.25,12.02-3.25s8.49,1.19,12.03,3.25c.01,0,.02.02.03.03.09.06.19.11.32.18h0s.05.03.08.04c3.22,1.97,5.93,4.67,7.92,7.88.03.05.05.1.08.15h0c.06.11.12.21.18.32.03.04.06.08.1.12,2.05,3.53,3.23,7.62,3.23,11.98,0,4.36-1.19,8.49-3.25,12.03,0,.01-.03.02-.03.03-.06.1-.13.21-.18.32h0s-.02.05-.04.08c-1.97,3.22-4.67,5.93-7.88,7.92-.05.03-.11.05-.16.08h0c-.11.06-.22.12-.32.18-.03.02-.05.05-.08.07-3.54,2.06-7.64,3.25-12.02,3.25s-8.49-1.19-12.03-3.25c-.01,0-.02-.03-.03-.03-.09-.06-.19-.11-.32-.18h0s-.05-.03-.08-.04c-3.22-1.97-5.93-4.67-7.92-7.88-.03-.05-.05-.1-.07-.15h0c-.06-.11-.12-.22-.18-.32-.02-.03-.05-.05-.07-.08-2.06-3.54-3.25-7.64-3.25-12.02s1.19-8.48,3.24-12.01h0ZM48.93,50.34c-.14-.03-.28-.06-.43-.08.06-.06.12-.11.18-.17l.25.25ZM14.08,50.18c-1.26.04-2.55.32-3.79.86.54-1.24.82-2.53.86-3.79.9,1.05,1.88,2.03,2.93,2.92h0ZM6.69,39.73c.58,1.52,1.3,2.97,2.14,4.33,1.38,2.75.51,6.62-2.14,9.38v-13.71s0,0,0,0ZM6.69,60.92c1.2,2.17,2.85,3.89,4.86,4.99-1.84,1.27-3.63,3.06-4.86,5.34v-10.33s0,0,0,0ZM6.69,77.82c0-5.52,3.64-9.44,7.03-11.28.29-.15.46-.47.43-.79-.02-.33-.23-.61-.54-.73-3.46-1.29-5.98-4.53-6.93-8.91v-1.2c.13.08.28.14.43.14.21,0,.43-.08.59-.25,2.8-2.8,6.83-3.74,9.64-2.26,3.88,2.37,8.43,3.73,13.3,3.73s9.51-1.4,13.42-3.81c0,0,.02,0,.03-.01-1.77,1.91-3.5,3.87-5.17,5.87-.16,0-.32.05-.46.16-8.29,6.4-15.38,8.66-21.68,6.89-.39-.11-.79.08-.97.43-.18.36-.08.79.24,1.04,7.88,6.05,4.71,17.4.96,27.09-4.89,11.3-8.41,23.33-10.32,35.89v-52h.01ZM19.22,67.53c4.97.52,10.34-1.09,16.24-4.88-5.06,6.56-9.58,13.57-13.49,20.95,1.21-5.97.98-11.75-2.75-16.07ZM6.7,152c0-2.54.06-5.1.19-7.6h.03s4.4,0,4.4,0v3.12c0,.35.14.66.37.89s.54.37.89.37c.69,0,1.25-.56,1.25-1.25v-3.12h2.62c.35,0,.66-.14.89-.37s.37-.54.37-.89c0-.69-.56-1.25-1.25-1.25h-2.62v-3.12c0-.69-.56-1.25-1.25-1.25-.35,0-.66.14-.89.37s-.37.54-.37.89v3.12h-4.28c.47-6.85,1.42-13.58,2.82-20.14.2.14.46.28.64.28l3.06.59.69.13-.35,1.96c-.07.07-.1,1-.09,1.09,0,.33.14.64.37.87.22.22.51.35.83.37h.08c.29,0,.57-.11.79-.29.22-.17.58-.66.58-.96l.51-2.51,1.54.3c.06.06.86.09.94.09.34,0,.66-.14.89-.37.24-.24.38-.58.36-.93,0-.25-.09-.48-.23-.67-.17-.27-.73-.72-1.07-.72l-1.88-.41.27-1.31c.12-.12.12-1.69,0-1.81-.11-.63-.71-1.06-1.36-.97-.05,0-.09.02-.14.03-.21.03-.55.26-.69.41-.17.17-.43.56-.43.82l-.4,2.22-2.92-.64c-.09-.09-.95-.12-1.41-.07,1.58-6.79,3.62-13.41,6.11-19.8.06-.07.11-.14.14-.23.55-1.35,1.12-2.75,1.69-4.2h0c0,.18.43.7.55.81.11.11.62.53.79.53l2.83,1.19.37.16-.81,2.05c-.13.13-.19.87-.18,1.04,0,.32.14.63.37.85.23.23.53.36.85.37h.08c.29,0,.57-.12.79-.32.15-.11.67-.73.67-.93l.85-1.96,1.58.66c.12.12.76.18.92.18.33,0,.65-.13.89-.37.26-.26.39-.61.36-.97-.02-.25-.11-.49-.27-.69-.11-.18-.85-.84-1.07-.84l-1.27-.58.68-1.56c.25-.25.25-1.55,0-1.8-.23-.57-.87-.87-1.46-.68-.05.02-.09.03-.13.05-.14.02-.55.36-.64.46-.11.11-.5.59-.5.76l-.61,1.55-.44-.2-2.85-1.3c-.23-.23-1.36-.24-1.67-.03,3.62-8.18,7.98-15.97,12.99-23.28.17.2.4.45.43.48.06.06.66.62.75.62l2.61,1.78.22.15-1.43,2.16c-.2.2-.29.74-.28,1,.01.31.14.61.37.84.23.24.55.36.87.37h.08c.29-.01.58-.13.8-.34.07-.06.77-.8.77-.9l1.09-1.57,1.72,1.18c.18.18.66.28.9.28.33,0,.65-.13.89-.37.27-.27.4-.65.36-1.02-.03-.25-.13-.5-.31-.7-.05-.09-.96-.96-1.07-.96l-.92-.65,1.33-1.91c.37-.37.37-1.42,0-1.78-.34-.51-1.02-.68-1.56-.38-.04.02-.08.05-.12.08-.07,0-.55.46-.6.51-.06.06-.57.61-.57.7l-.77,1.17-.99-.71-2.73-1.95c-.08-.08-.2-.15-.34-.19,4.09-5.75,8.6-11.19,13.47-16.28,1.69,0,3.48.58,5.08,1.66l-2.21,2.21c-.49.49-.49,1.28,0,1.77.25.25.56.37.89.37s.64-.12.89-.37l2.21-2.21,1.86,1.86c.25.25.56.37.89.37s.64-.12.89-.37c.49-.49.49-1.28,0-1.77l-1.86-1.86,2.21-2.21c.49-.49.49-1.28,0-1.77s-1.28-.49-1.77,0l-2.21,2.21-.21-.21-.92-.92c-.55-1.18-.84-2.42-.84-3.61,5.2-4.94,10.78-9.5,16.67-13.63.04.09.09.18.15.24l1.73,2.47.89,1.27-1.37.95c-.1,0-.84.7-.89.77-.21.22-.33.51-.34.8-.02.35.11.69.36.95.23.23.53.36.84.37h.06c.24,0,.75-.09.93-.28l1.98-1.31.32.46c0,.17,1.29,1.47,1.47,1.47.02,0,.13.1.14.09.26.17.57.23.86.17s.56-.22.74-.48c.37-.37.37-1.41,0-1.78l-1.08-1.55,1.24-.82c.09,0,.65-.52.71-.58.05-.05.48-.51.49-.58.03-.04.05-.08.08-.13.29-.54.13-1.22-.39-1.56-.37-.37-1.42-.37-1.78,0l-1.95,1.36-.19-.27-1.63-2.33c0-.13-.7-.86-1.14-1.24,7.26-4.9,14.98-9.16,23.08-12.69-.07.48-.02,1.17.15,1.35l1.15,2.64.28.65-1.64.71c-.2,0-.81.53-.92.67-.2.22-.31.5-.32.79-.01.35.12.68.37.93.23.23.53.36.86.37h.06c.16,0,.86-.06.98-.18l1.75-.7.44,1c0,.35,1.05,1.4,1.4,1.4.03,0,.13.06.15.06.28.1.57.08.83-.03s.48-.31.6-.59c.25-.25.25-1.54,0-1.78l-.52-1.19,1.66-.66c.17,0,.65-.39.76-.51.1-.1.43-.49.45-.63.02-.05.04-.09.05-.14.19-.59-.1-1.23-.68-1.46-.25-.25-1.55-.25-1.8,0l-1.63.71-.23-.52-1.09-2.48c0-.27-.64-.97-1.08-1.26,7.63-3.19,15.59-5.75,23.81-7.6,0,.44.03.9.09.96l.58,2.8v.04s-2.24.46-2.24.46c-.3,0-.78.36-.96.58-.18.22-.29.49-.29.79,0,.35.13.67.37.91s.54.36.87.37h.06c.08,0,.96-.03,1.02-.09l1.73-.31.36,1.77c0,.52.81,1.32,1.32,1.32.05,0,.13.03.17.02.29.03.57-.05.79-.22.23-.17.39-.41.45-.71.12-.12.12-1.67,0-1.79l-.19-.92,2.32-.42c.26,0,.66-.27.83-.43.14-.14.38-.46.4-.68.01-.05.03-.1.03-.15.1-.64-.33-1.24-.97-1.36-.12-.12-1.68-.12-1.81,0l-1.37.28-.2-.99-.54-2.64c0-.06-.01-.12-.03-.19,6.45-1.32,13.05-2.21,19.78-2.63v3.55h-3.12c-.69,0-1.25.56-1.25,1.25s.14.66.37.89.54.37.89.37h3.12v2.62c0,.69.56,1.25,1.25,1.25s1.25-.56,1.25-1.25v-2.62h3.12c.35,0,.66-.14.89-.37s.37-.54.37-.89-.56-1.25-1.25-1.25h-3.12s0-3.69,0-3.69c2.25-.1,4.97-.28,7.24-.28v-2H10.03c-2.77.01-5.01,2.26-5.01,5.03v141.97s1.69,0,1.69,0ZM29.83,26.17c5.19.1,8.97-2.52,8.49-4.85-.85-4.15-5.24-4.35-7.71-4.43-1.91-.06-5.69.28-6.91,2.98-1.57,3.47,1.72,6.21,6.13,6.3h0ZM30.64,51.41c11.45,0,20.77-9.32,20.77-20.77,0-11.45-9.32-20.77-20.77-20.77-11.45,0-20.77,9.32-20.77,20.77,0,11.45,9.32,20.77,20.77,20.77ZM30.64,48.07c-2.13,0-4.17-.41-6.06-1.11,1.76-.85,3.41-2.46,4.9-4.84.37.26.95.92,1.26,2.01.34,1.21.49,2.31.6,3.19.03.25.06.48.1.7-.27.01-.53.04-.8.04ZM46.96,24.59c.71,1.89,1.11,3.92,1.11,6.06s-.03.53-.04.8c-.23-.03-.46-.07-.7-.1-.89-.11-1.98-.26-3.19-.6-1.09-.31-1.75-.89-2.01-1.26,2.38-1.49,3.99-3.13,4.84-4.9h0ZM30.64,13.22c6.01,0,11.32,3.06,14.46,7.71.07.37.09.76.04,1.17-.23,1.88-1.86,3.77-4.71,5.48-.69.41-1.03,1.15-.92,1.98.2,1.51,1.82,2.99,3.94,3.59,1.39.4,2.59.55,3.56.68.24.03.5.07.74.1-.36,1.87-1.02,3.63-1.92,5.23-1.95-.66-5.01-2.74-6.59-4.41-.48-.5-1.27-.52-1.77-.05s-.52,1.27-.05,1.77c1.36,1.43,4.37,3.73,6.99,4.81-1.08,1.39-2.36,2.62-3.81,3.64-.84-2.48-2.39-4.36-4.59-6.88-.46-.52-1.25-.57-1.77-.12-.52.46-.57,1.25-.12,1.77,2.2,2.52,3.61,4.22,4.25,6.54-1.39.69-2.88,1.21-4.45,1.51-.04-.24-.07-.51-.1-.75-.13-.97-.28-2.17-.68-3.56-.61-2.12-2.08-3.74-3.59-3.94-.1-.01-.2-.02-.3-.02-.71,0-1.32.34-1.68.94-1.71,2.85-3.61,4.48-5.48,4.71-.41.05-.8.03-1.17-.04-4.65-3.13-7.71-8.44-7.71-14.46,0-9.61,7.82-17.42,17.43-17.42h0ZM22.59,39.42c2.38.08,4.32-4.09,3.34-9.19-.83-4.33-4.09-7.11-7.25-4.97-2.45,1.66-2.14,5.43-1.76,7.31.49,2.42,1.44,6.71,5.67,6.85h0Z"/>
</svg>