<?xml version="1.0" encoding="UTF-8"?>
<svg id="Layer_1" data-name="Layer 1" xmlns="http://www.w3.org/2000/svg" viewBox="0 0 131 112">
  <defs>
    <style>
      .cls-1 {
        fill: #fff;
        stroke-width: 0px;
      }
    </style>
  </defs>
  <path class="cls-1" d="m-644.5,95.41H775.5c1.66,0,3-1.35,3-3.02s-1.34-3.02-3-3.02H130.15c-.36-.35-.85-.58-1.39-.58-7.31,0-13.79-4.03-15.56-9.63-.98-4.04-2.44-7.89-4.33-11.48l9.56-5.56,3.15,5.51c.37.65,1.04,1.01,1.73,1.01.34,0,.68-.09,1-.27.96-.56,1.28-1.79.73-2.75l-3.15-5.51,4.64-2.7c.96-.56,1.28-1.79.73-2.75-.55-.96-1.78-1.3-2.73-.74l-4.64,2.7-3.15-5.5c-.55-.96-1.78-1.3-2.73-.74-.96.56-1.28,1.79-.73,2.75l3.15,5.5-9.59,5.58c-3.87-6.07-9.01-11.24-15.04-15.11l5.34-9.32,5.46,3.18c.31.18.66.27,1,.27.69,0,1.36-.36,1.73-1.01.55-.96.22-2.2-.73-2.75l-5.46-3.18,2.68-4.68c.55-.96.22-2.2-.73-2.75-.96-.56-2.18-.23-2.73.74l-2.68,4.68-5.46-3.18c-.96-.56-2.18-.23-2.73.74-.55.96-.22,2.2.73,2.75l5.46,3.18-5.33,9.31c-3.6-1.92-7.47-3.39-11.54-4.36-3.81-1.32-6.86-4.87-8.35-9.39v-14.97h10.76c1.66,0,3-1.35,3-3.02s-1.34-3.02-3-3.02h-10.76V3.02C68.45,1.35,67.11,0,65.45,0s-3,1.35-3,3.02v9.26h-10.76c-1.66,0-3,1.35-3,3.02s1.34,3.02,3,3.02h10.76v14.97c-1.52,4.6-4.65,8.2-8.55,9.46-4.01.98-7.83,2.46-11.39,4.37l-5.38-9.39,5.46-3.18c.96-.56,1.28-1.79.73-2.75-.55-.96-1.78-1.3-2.73-.74l-5.46,3.18-2.68-4.68c-.55-.96-1.78-1.3-2.73-.74-.96.56-1.28,1.79-.73,2.75l2.68,4.68-5.46,3.18c-.96.56-1.28,1.79-.73,2.75.37.65,1.04,1.01,1.73,1.01.34,0,.68-.09,1-.27l5.46-3.18,5.4,9.42c-6.5,4.21-11.96,9.92-15.88,16.64l-9.64-5.61,3.15-5.51c.55-.96.22-2.2-.73-2.75-.96-.56-2.18-.23-2.73.74l-3.15,5.51-4.64-2.7c-.96-.56-2.18-.23-2.73.74-.55.96-.22,2.2.73,2.75l4.64,2.7-3.15,5.51c-.55.96-.22,2.2.73,2.75.31.18.66.27,1,.27.69,0,1.36-.36,1.73-1.01l3.15-5.5,9.75,5.67c-1.53,3.18-2.71,6.56-3.54,10.08-1.87,5.49-8.27,9.42-15.49,9.42-.48,0-.9.19-1.24.47h-645.5c-1.66,0-3,1.35-3,3.02s1.34,3.02,3,3.02ZM68.45,57.46c16.48,1.47,29.51,15.09,30.25,31.9h-30.25v-31.9Zm-6,31.9h-30.15c.74-16.77,13.71-30.38,30.15-31.89v31.89Zm54.08,0h-1.97c-.01-.5-.03-1.01-.06-1.51.64.54,1.31,1.05,2.03,1.51Zm-7.29-9.57c.01.06,0,.12.02.19.02.09.06.17.09.25.7,2.94,1.12,5.99,1.22,9.13h-5.85c-.75-20.14-16.46-36.46-36.25-37.95v-5.91c2.5.16,4.95.54,7.32,1.1.14.04.27.11.41.15.18.05.37.08.55.08,0,0,0,0,0,0,15.94,4.14,28.48,16.86,32.49,32.97Zm-54.71-33.03c.06-.01.13,0,.19-.02.08-.02.15-.06.22-.08,2.43-.59,4.94-.98,7.51-1.16v5.9c-19.74,1.54-35.4,17.84-36.15,37.94h-5.85c.1-3.02.49-5.96,1.14-8.81.05-.16.11-.31.16-.47.03-.12.02-.23.03-.35,4.05-16.17,16.7-28.91,32.75-32.97Zm-38.03,41.2c-.03.46-.04.93-.05,1.4h-1.8c.66-.43,1.27-.9,1.85-1.4Z"/>
  <path class="cls-1" d="m758.04,99.97H-627.04c-5.48,0-9.94,4.49-9.94,10.02,0,1.11.9,2.02,2,2.02s2-.9,2-2.02c0-3.3,2.66-5.98,5.94-5.98H758.04c3.27,0,5.94,2.68,5.94,5.98,0,1.11.9,2.02,2,2.02s2-.9,2-2.02c0-5.52-4.46-10.02-9.94-10.02Z"/>
</svg>