<?xml version="1.0" encoding="UTF-8"?>
<svg id="Layer_1" data-name="Layer 1" xmlns="http://www.w3.org/2000/svg" viewBox="0 0 128 128">
  <defs>
    <style>
      .cls-1 {
        fill: #fff;
        stroke-width: 0px;
      }
    </style>
  </defs>
  <path class="cls-1" d="M126.76,1.24v125.53H1.24V1.24h125.53ZM19.05,108.68c-.76-.14-1.92-.21-2.28.56-.24-1.25-1.8-1.64-2.43-1.02.34.31.61.76.76,1.19.25.7.28,1.5.13,2.21-.04.2-.09.39-.16.57-.15.39-.4.78-.6,1.14-.08.13.08.29.21.21.36-.21.75-.45,1.14-.6.18-.07.37-.12.57-.16.71-.15,1.51-.12,2.21.13.43.16.88.42,1.19.76.62-.63.23-2.19-1.02-2.42.78-.37.7-1.52.56-2.28-.03-.19-.09-.24-.28-.28ZM108.96,108.68c.76-.14,1.92-.21,2.28.56.24-1.25,1.79-1.64,2.42-1.02-.33.31-.6.76-.76,1.19-.25.7-.28,1.5-.13,2.21.04.2.09.39.16.57.14.39.4.78.6,1.14.08.13-.08.29-.21.21-.36-.21-.74-.45-1.14-.6-.18-.07-.37-.12-.57-.16-.72-.15-1.52-.12-2.21.13-.43.16-.88.42-1.19.76-.62-.63-.24-2.19,1.02-2.42-.77-.37-.7-1.52-.56-2.28.03-.19.09-.24.28-.28ZM108.95,19.32c.76.14,1.92.21,2.28-.56.24,1.25,1.8,1.64,2.43,1.02-.34-.31-.61-.76-.76-1.19-.25-.7-.28-1.5-.13-2.21.04-.2.09-.39.16-.57.15-.39.4-.78.6-1.14.08-.13-.08-.29-.21-.21-.36.21-.75.45-1.14.6-.18.07-.37.12-.57.16-.71.15-1.52.12-2.21-.13-.43-.15-.88-.42-1.19-.76-.62.63-.23,2.19,1.02,2.43-.78.37-.7,1.52-.56,2.28.03.19.09.24.28.28ZM120.64,4.82c.07-.08.14-.16.22-.23.72-.64,1.87-.68,2.78-.51.16,0,.29.12.29.29.17.9.13,2.06-.51,2.78-.07.08-.15.15-.23.22.59.18,1.07.69,1.34,1.22.44.88.41,1.98-.29,2.71l-.09.1-.08-.1c-1.7-2.23-4.34-2.03-6.49-.58-.35.23-.5.08-.27-.27,1.46-2.15,1.65-4.79-.58-6.49l-.1-.08.1-.09c.73-.71,1.83-.74,2.71-.29.53.27,1.04.75,1.22,1.33ZM120.64,123.18c-.18.59-.68,1.07-1.22,1.34-.88.44-1.98.42-2.72-.29l-.1-.09.1-.08c2.23-1.7,2.03-4.34.58-6.49-.23-.35-.07-.5.27-.27,2.15,1.46,4.79,1.66,6.49-.58l.08-.11.09.1c.7.73.74,1.83.29,2.71-.27.54-.75,1.04-1.34,1.22.08.07.16.14.23.22.64.72.67,1.87.51,2.78,0,.16-.13.29-.29.29-.9.17-2.05.13-2.77-.51-.08-.07-.16-.15-.23-.24ZM7.36,123.18c-.07.08-.14.16-.22.23-.72.64-1.87.68-2.78.51-.16,0-.29-.12-.29-.29-.17-.9-.13-2.06.51-2.78.07-.08.15-.15.23-.22-.59-.18-1.07-.69-1.34-1.22-.44-.88-.41-1.98.29-2.71l.09-.1.08.1c1.7,2.23,4.34,2.03,6.49.58.35-.23.5-.07.27.27-1.46,2.15-1.65,4.79.58,6.49l.1.08-.1.09c-.73.71-1.83.74-2.71.29-.54-.27-1.04-.75-1.22-1.33ZM7.36,4.82c.18-.59.69-1.07,1.22-1.33.88-.45,1.98-.41,2.71.29l.1.09-.1.08c-2.23,1.7-2.03,4.34-.58,6.49.23.35.08.5-.27.27-2.15-1.46-4.79-1.65-6.49.58l-.08.1-.09-.1c-.71-.73-.74-1.83-.29-2.71.27-.53.75-1.04,1.34-1.22-.08-.07-.16-.14-.23-.22-.64-.72-.68-1.87-.51-2.78,0-.16.12-.29.29-.29.9-.17,2.06-.13,2.78.51.08.07.15.15.22.23ZM19.05,19.32c-.76.14-1.92.21-2.28-.56-.24,1.25-1.8,1.64-2.43,1.02.34-.31.61-.76.76-1.19.25-.7.28-1.5.13-2.21-.04-.2-.09-.39-.16-.57-.15-.39-.4-.78-.6-1.14-.08-.13.08-.29.21-.21.36.21.75.45,1.14.6.18.07.37.12.57.16.71.15,1.51.12,2.21-.13.43-.15.88-.42,1.19-.76.62.63.23,2.19-1.02,2.43.78.37.71,1.52.56,2.28-.03.19-.09.24-.28.28ZM18.74,8.81c-1.69-1.58-.9-3.71,1.26-4.41,1.2-.39,2.48-.33,3.73-.33h80.53c1.25,0,2.53-.06,3.73.33,2.17.71,2.96,2.83,1.26,4.41.15,0,.3,0,.45-.03.7-.13,1.3-.73,1.35-1.45l.03-.47.41.23c.07.04.15.07.23.08.08.01.15,0,.22-.05.07-.05.11-.12.13-.2.13-.49-.25-1.15-.56-1.51,0-.01-.02-.02-.03-.03l-1.02-1.11,1.36.65c.23.11.44.23.66.36,1.92,1.19,2.98,3.21,3.22,5.42.01.09.02.18.03.27l.03.31h-.31c-.67.03-1.35.07-2.02.12-1.39.1-2.79.19-4.18.05-.22-.02-.44-.05-.65-.1h0c-.96-.19-1.92-.59-2.58-1.34-.64-.72-.84-1.45-.81-2.41l.02-.52.44.29c.61.4,1.39-.22,1.29-.9-.1-.72-1.1-.85-1.66-.63-.62.24-1.01.85-1.09,1.49-.07.5-.05,1.05.07,1.54.29,1.25,1.17,2.24,2.28,2.85.23.12.46.23.71.32.24.09.49.17.75.23h.02s0,0,0,0c1.7.38,3.41.24,5.13.1.77-.07,1.55-.13,2.33-.15h.31s0,.3,0,.3c-.02.78-.08,1.55-.15,2.33-.15,1.71-.28,3.42.09,5.12l.02.06v.03c.05.24.12.48.21.71.09.24.2.48.32.71.6,1.11,1.6,1.99,2.85,2.28.49.11,1.04.14,1.54.07.65-.09,1.25-.47,1.49-1.09.22-.56.09-1.56-.64-1.66-.68-.09-1.3.68-.9,1.29l.29.44-.52.02c-.96.04-1.68-.16-2.41-.81-.74-.66-1.15-1.62-1.34-2.58h0c-.04-.22-.07-.44-.1-.66-.14-1.39-.05-2.79.05-4.18.05-.67.09-1.35.11-2.02v-.31s.32.03.32.03c.09,0,.18.02.27.03,2.21.25,4.23,1.31,5.42,3.22.13.21.25.43.36.66l.61,1.29-1.07-.94s-.02-.02-.04-.03c-.36-.31-1.02-.69-1.51-.56-.08.02-.15.06-.2.13-.05.07-.06.14-.05.22.01.08.05.16.08.22l.23.41-.47.03c-.72.05-1.32.65-1.45,1.35-.03.15-.04.3-.03.45,1.58-1.69,3.71-.9,4.41,1.26.39,1.2.33,2.48.33,3.73,0,26.84,0,53.68,0,80.53,0,1.25.06,2.53-.34,3.73-.7,2.17-2.82,2.96-4.41,1.27,0,.15,0,.3.03.45.13.69.73,1.3,1.45,1.35l.44.03-.2.4c-.03.07-.08.16-.09.24-.01.08,0,.16.04.22.05.07.12.1.2.13.49.13,1.16-.25,1.52-.57,0,0,.01-.01.02-.02l1.17-1.12-.71,1.46c-.11.22-.22.44-.35.65-1.19,1.91-3.21,2.98-5.42,3.22-.09,0-.18.02-.28.03l-.31.02v-.31c-.02-.67-.07-1.35-.12-2.02-.1-1.39-.19-2.79-.05-4.18.02-.21.05-.41.09-.62h0s0-.04,0-.04c.19-.96.6-1.92,1.34-2.58.72-.64,1.45-.84,2.4-.81l.52.02-.28.44c-.4.61.22,1.39.9,1.29.73-.1.85-1.1.63-1.66-.24-.63-.85-1.01-1.5-1.09-.5-.07-1.05-.05-1.54.07-1.25.29-2.24,1.17-2.85,2.28-.13.22-.23.46-.32.7-.09.24-.17.48-.22.73,0,.03,0,.04-.02.06-.37,1.69-.23,3.41-.09,5.12.07.77.13,1.55.15,2.33v.31s-.3,0-.3,0c-.78-.02-1.55-.08-2.33-.15-1.72-.15-3.44-.28-5.14.1h-.02s0,0,0,0c0,0,0,0,0,0-.25.06-.5.13-.74.22-.24.09-.48.2-.71.32-1.11.61-1.99,1.6-2.27,2.85-.11.49-.14,1.04-.07,1.54.08.65.47,1.25,1.09,1.49.56.22,1.56.09,1.66-.63.09-.68-.68-1.31-1.29-.9l-.44.29-.02-.52c-.04-.96.16-1.68.81-2.41.66-.74,1.62-1.15,2.58-1.34h.03s0,0,0,0c.21-.04.41-.07.62-.09,1.39-.14,2.79-.05,4.18.05.67.05,1.35.09,2.02.11h.3s-.01.31-.01.31c0,.09-.02.19-.02.28-.25,2.21-1.31,4.23-3.23,5.42-.21.13-.43.25-.66.36l-1.51.72,1.18-1.19s.01-.02.02-.02c.31-.36.7-1.02.56-1.51-.02-.08-.06-.15-.12-.2-.07-.05-.14-.06-.22-.05-.08.01-.16.05-.24.09l-.41.22-.03-.46c-.04-.72-.65-1.32-1.34-1.45-.15-.03-.3-.04-.46-.03,1.7,1.58.9,3.71-1.26,4.41-1.2.39-2.48.33-3.73.33H23.74c-1.25,0-2.53.06-3.73-.33-2.17-.71-2.96-2.83-1.26-4.41-.15,0-.3,0-.45.03-.7.13-1.3.73-1.35,1.45l-.03.47-.41-.23c-.07-.04-.15-.07-.22-.08-.08-.01-.15,0-.22.05-.07.05-.1.12-.13.2-.13.49.25,1.15.56,1.51.01.01.02.02.03.04l.92,1.06-1.26-.6c-.22-.11-.44-.23-.66-.36-1.92-1.19-2.98-3.21-3.22-5.42,0-.09-.02-.18-.03-.27l-.03-.31h.31c.67-.03,1.35-.07,2.02-.12,1.39-.1,2.79-.19,4.18-.05.21.02.42.05.62.09h.03c.96.19,1.92.6,2.58,1.34.65.72.84,1.45.81,2.41l-.02.52-.44-.29c-.61-.4-1.39.22-1.29.9.1.72,1.11.85,1.66.63.62-.24,1.01-.85,1.09-1.49.07-.5.05-1.05-.07-1.54-.29-1.25-1.17-2.24-2.27-2.85-.23-.12-.46-.23-.71-.32-.24-.09-.48-.16-.73-.22h-.06l-.03-.02c-1.68-.37-3.38-.23-5.08-.09-.77.07-1.55.13-2.33.15h-.31s0-.3,0-.3c.02-.78.08-1.55.15-2.33.15-1.71.28-3.43-.09-5.12h0s0-.04,0-.04c-.06-.25-.13-.51-.22-.75-.09-.24-.2-.48-.32-.71-.61-1.1-1.6-1.99-2.85-2.28-.49-.11-1.04-.13-1.54-.07-.65.09-1.25.47-1.49,1.09-.22.56-.09,1.56.63,1.66.68.09,1.31-.68.9-1.29l-.29-.44.52-.02c.96-.04,1.68.16,2.41.81.74.66,1.15,1.62,1.34,2.58h0c.04.22.07.44.1.66.14,1.39.05,2.79-.05,4.18-.05.67-.09,1.35-.11,2.02v.31s-.32-.02-.32-.02c-.09,0-.18-.02-.27-.03-2.21-.25-4.23-1.31-5.42-3.22-.13-.21-.25-.43-.36-.66l-.64-1.35,1.1,1s.02.02.03.03c.36.31,1.02.7,1.51.56.08-.02.15-.06.2-.13.05-.06.06-.14.05-.22-.01-.08-.05-.16-.08-.22l-.23-.41.47-.03c.72-.05,1.32-.65,1.45-1.35.03-.15.04-.3.03-.45-1.58,1.7-3.71.9-4.41-1.27-.39-1.2-.33-2.48-.33-3.73V23.74c0-1.25-.06-2.53.33-3.73.71-2.17,2.83-2.96,4.41-1.26,0-.15,0-.3-.03-.45-.13-.7-.73-1.3-1.45-1.35l-.47-.03.23-.41c.04-.07.07-.15.08-.22.01-.08,0-.15-.05-.22-.05-.07-.12-.1-.2-.13-.49-.13-1.15.25-1.51.56-.01.01-.02.02-.04.03l-1.07.94.61-1.29c.11-.22.23-.44.36-.66,1.19-1.92,3.21-2.98,5.42-3.22.09-.01.18-.02.27-.03l.31-.03v.31c.03.67.07,1.35.12,2.02.1,1.39.19,2.79.05,4.18-.02.22-.05.44-.1.65h0c-.19.97-.59,1.92-1.34,2.59-.72.64-1.45.84-2.41.81l-.52-.02.29-.44c.4-.61-.22-1.39-.9-1.29-.72.1-.85,1.1-.63,1.66.24.63.85,1.01,1.49,1.09.5.07,1.05.05,1.54-.07,1.25-.29,2.24-1.17,2.85-2.28.12-.23.23-.46.32-.71.09-.24.17-.49.22-.74v-.04s.01-.01.01-.01c.37-1.69.24-3.41.09-5.12-.07-.77-.13-1.55-.15-2.33v-.31s.3,0,.3,0c.78.02,1.55.08,2.33.15,1.71.15,3.43.28,5.13-.09l.06-.02h.01c.24-.06.48-.13.72-.22.24-.09.48-.2.71-.32,1.1-.61,1.99-1.6,2.28-2.85.11-.49.14-1.04.07-1.54-.09-.65-.47-1.25-1.09-1.49-.56-.22-1.56-.09-1.66.64-.09.68.68,1.3,1.29.9l.44-.29.02.52c.04.96-.16,1.68-.81,2.41-.66.74-1.62,1.15-2.58,1.34h0c-.22.04-.43.08-.65.1-1.39.14-2.79.05-4.18-.05-.67-.05-1.35-.09-2.02-.11h-.31s.03-.32.03-.32c0-.09.02-.18.03-.27.25-2.21,1.31-4.23,3.22-5.42.21-.13.43-.25.66-.36l1.36-.65-1.02,1.11s-.02.02-.03.03c-.31.36-.69,1.02-.56,1.51.02.08.06.15.13.2.07.05.14.06.22.05.08-.01.16-.05.23-.08l.41-.23.03.47c.05.72.65,1.32,1.35,1.45.15.03.3.04.45.03ZM124.24,16.28c-.75-2.13-2.15-3.49-4.23-4.33-.97-.39-2-.58-3.04-.65l-.26-.02-.02-.26c-.06-1.04-.26-2.07-.65-3.04-.83-2.08-2.2-3.48-4.32-4.23-2.27-.76-5.08-.72-7.46-.72-26.84,0-53.68,0-80.53,0-2.38,0-5.19-.04-7.46.72-2.13.75-3.49,2.15-4.33,4.23-.39.97-.58,2-.65,3.04l-.02.26-.26.02c-1.04.06-2.07.26-3.04.65-2.08.83-3.48,2.2-4.23,4.32-.77,2.29-.72,5.06-.72,7.46,0,26.84,0,53.68,0,80.53,0,2.4-.05,5.17.72,7.46.75,2.13,2.15,3.5,4.23,4.33.97.39,2,.58,3.04.65l.26.02.02.26c.06,1.04.26,2.07.65,3.04.83,2.08,2.2,3.48,4.32,4.23,2.27.76,5.08.72,7.46.72,26.84,0,53.69,0,80.53,0,2.38,0,5.19.04,7.46-.72,2.13-.75,3.49-2.15,4.33-4.23.39-.97.58-2,.64-3.04l.02-.26.26-.02c1.04-.06,2.07-.26,3.04-.65,2.08-.83,3.48-2.2,4.23-4.32.77-2.29.72-5.06.72-7.46,0-26.84,0-53.68,0-80.53,0-2.4.05-5.17-.72-7.46ZM0,0v128h128V0H0Z"/>
</svg>