<?xml version="1.0" encoding="UTF-8"?>
<svg id="Layer_1" data-name="Layer 1" xmlns="http://www.w3.org/2000/svg" viewBox="0 0 22.47 600">
  <defs>
    <style>
      .cls-1 {
        fill: #fff;
        stroke-width: 0px;
      }
    </style>
  </defs>
  <path class="cls-1" d="M0,0v597c0,1.66,1.35,3,3.01,3h-.02c1.66,0,3-1.34,3-3V0H0ZM10.53,0,14.53,0,14.53,0v579.54c0,3.28,2.67,5.94,5.94,5.94,1.11,0,2,.89,2,2s-.89,2-2,2c-5.48,0-9.94-4.46-9.94-9.94V0h4Z"/>
  <path class="cls-1" d="M5.99,0v-597c0-1.66-1.34-3-3-3h.02c-1.66,0-3,1.34-3,3V0S5.99,0,5.99,0ZM10.53,0,14.53,0,10.53,0v-579.54c0-5.48,4.46-9.94,9.94-9.94,1.11,0,2,.89,2,2s-.89,2-2,2c-3.27,0-5.94,2.66-5.94,5.94V0h-4Z"/>
</svg>