<?xml version="1.0" encoding="UTF-8"?>
<svg id="Layer_1" data-name="Layer 1" xmlns="http://www.w3.org/2000/svg" viewBox="0 0 88.65 129.12">
  <defs>
    <style>
      .cls-1 {
        fill: #fff;
        stroke-width: 0px;
      }
    </style>
  </defs>
  <path class="cls-1" d="M88.65,109.72c-3-.1-5.92-.49-8.74-1.14-.15-.05-.68-.17-.8-.19-16.04-4.04-28.69-16.7-32.72-32.75h0c0-.08,0-.14-.02-.2-.02-.08-.06-.15-.08-.23-.59-2.43-.97-4.94-1.14-7.5h5.86c1.53,19.74,17.69,35.4,37.64,36.15v-6.01c-16.65-.74-30.15-13.71-31.65-30.15,0,0,31.64,0,31.64,0v-6h-31.64c1.46-16.48,14.97-29.51,31.64-30.25v-6c-19.98.75-36.16,16.46-37.64,36.25h-5.86c.16-2.5.53-4.94,1.09-7.31.05-.14.11-.28.15-.42.03-.12.02-.23.03-.35,4.04-16,16.65-28.62,32.64-32.68h-.01c.1,0,.46-.1.54-.12,2.92-.7,5.95-1.12,9.06-1.22v-4.01c-.5,0-1,.03-1.49.06.54-.64,1.04-1.31,1.49-2.03V0c-.35.36-.57.85-.57,1.4,0,7.31-4.01,13.79-9.56,15.57-4,.98-7.82,2.44-11.37,4.33l-5.52-9.56,5.46-3.15c.96-.55,1.29-1.78.73-2.73-.55-.96-1.78-1.29-2.73-.73l-5.46,3.15-2.68-4.64c-.55-.96-1.78-1.29-2.73-.73-.96.55-1.29,1.78-.73,2.73l2.68,4.64-5.46,3.15c-.96.55-1.29,1.78-.73,2.73.37.64,1.04,1,1.73,1,.34,0,.68-.09,1-.27l5.46-3.15,5.53,9.59c-6.02,3.87-11.15,9.01-14.99,15.04l-9.24-5.34,3.15-5.46c.55-.96.22-2.18-.73-2.73-.96-.55-2.18-.23-2.73.73l-3.15,5.46-4.64-2.68c-.96-.55-2.18-.23-2.73.73-.55.96-.22,2.18.73,2.73l4.64,2.68-3.15,5.46c-.55.96-.22,2.18.73,2.73.31.18.66.27,1,.27.69,0,1.36-.36,1.73-1l3.15-5.46,9.23,5.33c-1.9,3.61-3.37,7.48-4.33,11.54-1.31,3.8-4.84,6.85-9.31,8.34h-14.85v-10.76c0-1.66-1.34-3-3-3s-3,1.34-3,3v10.76H3c-1.66,0-3,1.34-3,3s1.34,3,3,3h9.19v10.76c0,1.66,1.34,3,3,3s3-1.34,3-3v-10.76h14.85c4.55,1.52,8.13,4.64,9.38,8.54.98,4.02,2.44,7.84,4.34,11.4l-9.32,5.38-3.15-5.46c-.55-.96-1.78-1.29-2.73-.73-.96.55-1.29,1.78-.73,2.73l3.15,5.46-4.64,2.68c-.96.55-1.29,1.78-.73,2.73.37.64,1.04,1,1.73,1,.34,0,.68-.09,1-.27l4.64-2.68,3.15,5.46c.37.64,1.04,1,1.73,1,.34,0,.68-.09,1-.27.96-.55,1.29-1.78.73-2.73l-3.15-5.46,9.34-5.4c4.18,6.5,9.84,11.96,16.51,15.88l-5.57,9.64-5.46-3.15c-.96-.55-2.18-.22-2.73.73-.55.96-.22,2.18.73,2.73l5.46,3.15-2.68,4.64c-.55.96-.22,2.18.73,2.73.31.18.66.27,1,.27.69,0,1.36-.36,1.73-1l2.68-4.64,5.46,3.15c.31.18.66.27,1,.27.69,0,1.36-.36,1.73-1,.55-.96.22-2.18-.73-2.73l-5.46-3.15,5.63-9.75c3.16,1.53,6.51,2.71,9.99,3.54,5.45,1.87,9.35,8.27,9.35,15.49,0,.48.19.9.47,1.24l.02-13.62c-.43-.65-.89-1.27-1.38-1.85.46.03.92.04,1.38.05v-3.98"/>
</svg>